<svg id="visual" viewBox="0 0 960 540" width="960" height="540" xmlns="http://www.w3.org/2000/svg" xmlns:xlink="http://www.w3.org/1999/xlink" version="1.1"><rect x="0" y="0" width="960" height="540" fill="#FF0066"></rect><g transform="translate(83.56635588544762 -4.691837501565203)"><path d="M281.9 -374.1C358 -272 407.5 -176.3 435.9 -68.9C464.3 38.4 471.6 157.5 436.8 284.4C401.9 411.4 324.9 546.4 210.8 594.6C96.7 642.7 -54.6 604.2 -168.2 532.4C-281.9 460.6 -357.9 355.6 -445.4 239.8C-533 124 -632.1 -2.5 -627.1 -124.4C-622 -246.3 -512.9 -363.7 -391 -457.7C-269.1 -551.7 -134.6 -622.4 -15.9 -603.5C102.8 -584.6 205.7 -476.1 281.9 -374.1" fill="#BB004B"></path></g></svg>