<svg id="visual" viewBox="0 0 960 540" width="960" height="540" xmlns="http://www.w3.org/2000/svg" xmlns:xlink="http://www.w3.org/1999/xlink" version="1.1"><rect x="0" y="0" width="960" height="540" fill="#001220"></rect><defs><linearGradient id="grad1_0" x1="43.8%" y1="0%" x2="100%" y2="100%"><stop offset="14.444444444444446%" stop-color="#fbae3c" stop-opacity="1"></stop><stop offset="85.55555555555554%" stop-color="#fbae3c" stop-opacity="1"></stop></linearGradient></defs><defs><linearGradient id="grad1_1" x1="43.8%" y1="0%" x2="100%" y2="100%"><stop offset="14.444444444444446%" stop-color="#fbae3c" stop-opacity="1"></stop><stop offset="85.55555555555554%" stop-color="#f17c53" stop-opacity="1"></stop></linearGradient></defs><defs><linearGradient id="grad1_2" x1="43.8%" y1="0%" x2="100%" y2="100%"><stop offset="14.444444444444446%" stop-color="#cc5867" stop-opacity="1"></stop><stop offset="85.55555555555554%" stop-color="#f17c53" stop-opacity="1"></stop></linearGradient></defs><defs><linearGradient id="grad1_3" x1="43.8%" y1="0%" x2="100%" y2="100%"><stop offset="14.444444444444446%" stop-color="#cc5867" stop-opacity="1"></stop><stop offset="85.55555555555554%" stop-color="#96446e" stop-opacity="1"></stop></linearGradient></defs><defs><linearGradient id="grad1_4" x1="43.8%" y1="0%" x2="100%" y2="100%"><stop offset="14.444444444444446%" stop-color="#593762" stop-opacity="1"></stop><stop offset="85.55555555555554%" stop-color="#96446e" stop-opacity="1"></stop></linearGradient></defs><defs><linearGradient id="grad1_5" x1="43.8%" y1="0%" x2="100%" y2="100%"><stop offset="14.444444444444446%" stop-color="#593762" stop-opacity="1"></stop><stop offset="85.55555555555554%" stop-color="#232745" stop-opacity="1"></stop></linearGradient></defs><defs><linearGradient id="grad1_6" x1="43.8%" y1="0%" x2="100%" y2="100%"><stop offset="14.444444444444446%" stop-color="#001220" stop-opacity="1"></stop><stop offset="85.55555555555554%" stop-color="#232745" stop-opacity="1"></stop></linearGradient></defs><defs><linearGradient id="grad2_0" x1="0%" y1="0%" x2="56.3%" y2="100%"><stop offset="14.444444444444446%" stop-color="#fbae3c" stop-opacity="1"></stop><stop offset="85.55555555555554%" stop-color="#fbae3c" stop-opacity="1"></stop></linearGradient></defs><defs><linearGradient id="grad2_1" x1="0%" y1="0%" x2="56.3%" y2="100%"><stop offset="14.444444444444446%" stop-color="#f17c53" stop-opacity="1"></stop><stop offset="85.55555555555554%" stop-color="#fbae3c" stop-opacity="1"></stop></linearGradient></defs><defs><linearGradient id="grad2_2" x1="0%" y1="0%" x2="56.3%" y2="100%"><stop offset="14.444444444444446%" stop-color="#f17c53" stop-opacity="1"></stop><stop offset="85.55555555555554%" stop-color="#cc5867" stop-opacity="1"></stop></linearGradient></defs><defs><linearGradient id="grad2_3" x1="0%" y1="0%" x2="56.3%" y2="100%"><stop offset="14.444444444444446%" stop-color="#96446e" stop-opacity="1"></stop><stop offset="85.55555555555554%" stop-color="#cc5867" stop-opacity="1"></stop></linearGradient></defs><defs><linearGradient id="grad2_4" x1="0%" y1="0%" x2="56.3%" y2="100%"><stop offset="14.444444444444446%" stop-color="#96446e" stop-opacity="1"></stop><stop offset="85.55555555555554%" stop-color="#593762" stop-opacity="1"></stop></linearGradient></defs><defs><linearGradient id="grad2_5" x1="0%" y1="0%" x2="56.3%" y2="100%"><stop offset="14.444444444444446%" stop-color="#232745" stop-opacity="1"></stop><stop offset="85.55555555555554%" stop-color="#593762" stop-opacity="1"></stop></linearGradient></defs><defs><linearGradient id="grad2_6" x1="0%" y1="0%" x2="56.3%" y2="100%"><stop offset="14.444444444444446%" stop-color="#232745" stop-opacity="1"></stop><stop offset="85.55555555555554%" stop-color="#001220" stop-opacity="1"></stop></linearGradient></defs><g transform="translate(960, 0)"><path d="M0 378C-40 323.5 -79.9 268.9 -141 244.2C-202.1 219.5 -284.3 224.7 -327.4 189C-370.4 153.3 -374.2 76.6 -378 0L0 0Z" fill="#0f1d33"></path><path d="M0 324C-34.2 277.2 -68.5 230.5 -120.9 209.3C-173.2 188.2 -243.7 192.6 -280.6 162C-317.5 131.4 -320.7 65.7 -324 0L0 0Z" fill="#3d3056"></path><path d="M0 270C-28.5 231 -57.1 192.1 -100.7 174.4C-144.4 156.8 -203.1 160.5 -233.8 135C-264.6 109.5 -267.3 54.7 -270 0L0 0Z" fill="#773d6b"></path><path d="M0 216C-22.8 184.8 -45.7 153.7 -80.6 139.6C-115.5 125.5 -162.5 128.4 -187.1 108C-211.6 87.6 -213.8 43.8 -216 0L0 0Z" fill="#b34c6d"></path><path d="M0 162C-17.1 138.6 -34.2 115.2 -60.4 104.7C-86.6 94.1 -121.9 96.3 -140.3 81C-158.7 65.7 -160.4 32.8 -162 0L0 0Z" fill="#e1685e"></path><path d="M0 108C-11.4 92.4 -22.8 76.8 -40.3 69.8C-57.7 62.7 -81.2 64.2 -93.5 54C-105.8 43.8 -106.9 21.9 -108 0L0 0Z" fill="#f99447"></path><path d="M0 54C-5.7 46.2 -11.4 38.4 -20.1 34.9C-28.9 31.4 -40.6 32.1 -46.8 27C-52.9 21.9 -53.5 10.9 -54 0L0 0Z" fill="#fbae3c"></path></g><g transform="translate(0, 540)"><path d="M0 -378C30.9 -307.7 61.8 -237.5 124 -214.8C186.2 -192.1 279.8 -216.9 327.4 -189C374.9 -161.1 376.5 -80.6 378 0L0 0Z" fill="#0f1d33"></path><path d="M0 -324C26.5 -263.8 52.9 -203.6 106.3 -184.1C159.6 -164.6 239.8 -185.9 280.6 -162C321.4 -138.1 322.7 -69.1 324 0L0 0Z" fill="#3d3056"></path><path d="M0 -270C22.1 -219.8 44.1 -169.6 88.6 -153.4C133 -137.2 199.9 -154.9 233.8 -135C267.8 -115.1 268.9 -57.5 270 0L0 0Z" fill="#773d6b"></path><path d="M0 -216C17.6 -175.9 35.3 -135.7 70.9 -122.7C106.4 -109.7 159.9 -123.9 187.1 -108C214.2 -92.1 215.1 -46 216 0L0 0Z" fill="#b34c6d"></path><path d="M0 -162C13.2 -131.9 26.5 -101.8 53.1 -92C79.8 -82.3 119.9 -92.9 140.3 -81C160.7 -69.1 161.3 -34.5 162 0L0 0Z" fill="#e1685e"></path><path d="M0 -108C8.8 -87.9 17.6 -67.9 35.4 -61.4C53.2 -54.9 79.9 -62 93.5 -54C107.1 -46 107.6 -23 108 0L0 0Z" fill="#f99447"></path><path d="M0 -54C4.4 -44 8.8 -33.9 17.7 -30.7C26.6 -27.4 40 -31 46.8 -27C53.6 -23 53.8 -11.5 54 0L0 0Z" fill="#fbae3c"></path></g></svg>