<svg id="visual" viewBox="0 0 960 540" width="960" height="540" xmlns="http://www.w3.org/2000/svg" xmlns:xlink="http://www.w3.org/1999/xlink" version="1.1"><rect x="0" y="0" width="960" height="540" fill="#001122"></rect><path d="M0 319L22.8 329.5C45.7 340 91.3 361 137 361.8C182.7 362.7 228.3 343.3 274 342C319.7 340.7 365.3 357.3 411.2 361.7C457 366 503 358 548.8 348.7C594.7 339.3 640.3 328.7 686 332.2C731.7 335.7 777.3 353.3 823 359.8C868.7 366.3 914.3 361.7 937.2 359.3L960 357L960 541L937.2 541C914.3 541 868.7 541 823 541C777.3 541 731.7 541 686 541C640.3 541 594.7 541 548.8 541C503 541 457 541 411.2 541C365.3 541 319.7 541 274 541C228.3 541 182.7 541 137 541C91.3 541 45.7 541 22.8 541L0 541Z" fill="#fa7268"></path><path d="M0 382L22.8 378.3C45.7 374.7 91.3 367.3 137 368.2C182.7 369 228.3 378 274 388.7C319.7 399.3 365.3 411.7 411.2 410.3C457 409 503 394 548.8 386.7C594.7 379.3 640.3 379.7 686 386C731.7 392.3 777.3 404.7 823 412C868.7 419.3 914.3 421.7 937.2 422.8L960 424L960 541L937.2 541C914.3 541 868.7 541 823 541C777.3 541 731.7 541 686 541C640.3 541 594.7 541 548.8 541C503 541 457 541 411.2 541C365.3 541 319.7 541 274 541C228.3 541 182.7 541 137 541C91.3 541 45.7 541 22.8 541L0 541Z" fill="#ef5f67"></path><path d="M0 438L22.8 432.2C45.7 426.3 91.3 414.7 137 408.8C182.7 403 228.3 403 274 407.8C319.7 412.7 365.3 422.3 411.2 427.3C457 432.3 503 432.7 548.8 434.8C594.7 437 640.3 441 686 443C731.7 445 777.3 445 823 445.7C868.7 446.3 914.3 447.7 937.2 448.3L960 449L960 541L937.2 541C914.3 541 868.7 541 823 541C777.3 541 731.7 541 686 541C640.3 541 594.7 541 548.8 541C503 541 457 541 411.2 541C365.3 541 319.7 541 274 541C228.3 541 182.7 541 137 541C91.3 541 45.7 541 22.8 541L0 541Z" fill="#e34c67"></path><path d="M0 452L22.8 449.2C45.7 446.3 91.3 440.7 137 437.8C182.7 435 228.3 435 274 436.7C319.7 438.3 365.3 441.7 411.2 444.8C457 448 503 451 548.8 458.2C594.7 465.3 640.3 476.7 686 477C731.7 477.3 777.3 466.7 823 464.7C868.7 462.7 914.3 469.3 937.2 472.7L960 476L960 541L937.2 541C914.3 541 868.7 541 823 541C777.3 541 731.7 541 686 541C640.3 541 594.7 541 548.8 541C503 541 457 541 411.2 541C365.3 541 319.7 541 274 541C228.3 541 182.7 541 137 541C91.3 541 45.7 541 22.8 541L0 541Z" fill="#d53867"></path><path d="M0 495L22.8 497.5C45.7 500 91.3 505 137 504.2C182.7 503.3 228.3 496.7 274 493.3C319.7 490 365.3 490 411.2 487.8C457 485.7 503 481.3 548.8 482.5C594.7 483.7 640.3 490.3 686 493.7C731.7 497 777.3 497 823 493.5C868.7 490 914.3 483 937.2 479.5L960 476L960 541L937.2 541C914.3 541 868.7 541 823 541C777.3 541 731.7 541 686 541C640.3 541 594.7 541 548.8 541C503 541 457 541 411.2 541C365.3 541 319.7 541 274 541C228.3 541 182.7 541 137 541C91.3 541 45.7 541 22.8 541L0 541Z" fill="#c62368"></path></svg>