<svg id="visual" viewBox="0 0 960 540" width="960" height="540" xmlns="http://www.w3.org/2000/svg" xmlns:xlink="http://www.w3.org/1999/xlink" version="1.1"><path d="M0 212L14.5 212C29 212 58 212 87.2 208.3C116.3 204.7 145.7 197.3 174.8 188.3C204 179.3 233 168.7 262 166.8C291 165 320 172 349 178.2C378 184.3 407 189.7 436.2 189.7C465.3 189.7 494.7 184.3 523.8 179.8C553 175.3 582 171.7 611 178C640 184.3 669 200.7 698 192.7C727 184.7 756 152.3 785.2 147.8C814.3 143.3 843.7 166.7 872.8 163C902 159.3 931 128.7 945.5 113.3L960 98L960 0L945.5 0C931 0 902 0 872.8 0C843.7 0 814.3 0 785.2 0C756 0 727 0 698 0C669 0 640 0 611 0C582 0 553 0 523.8 0C494.7 0 465.3 0 436.2 0C407 0 378 0 349 0C320 0 291 0 262 0C233 0 204 0 174.8 0C145.7 0 116.3 0 87.2 0C58 0 29 0 14.5 0L0 0Z" fill="#513eb8"></path><path d="M0 255L14.5 260.3C29 265.7 58 276.3 87.2 283.5C116.3 290.7 145.7 294.3 174.8 287.2C204 280 233 262 262 266.5C291 271 320 298 349 299.8C378 301.7 407 278.3 436.2 273.8C465.3 269.3 494.7 283.7 523.8 292.7C553 301.7 582 305.3 611 302.7C640 300 669 291 698 273C727 255 756 228 785.2 228C814.3 228 843.7 255 872.8 246.8C902 238.7 931 195.3 945.5 173.7L960 152L960 96L945.5 111.3C931 126.7 902 157.3 872.8 161C843.7 164.7 814.3 141.3 785.2 145.8C756 150.3 727 182.7 698 190.7C669 198.7 640 182.3 611 176C582 169.7 553 173.3 523.8 177.8C494.7 182.3 465.3 187.7 436.2 187.7C407 187.7 378 182.3 349 176.2C320 170 291 163 262 164.8C233 166.7 204 177.3 174.8 186.3C145.7 195.3 116.3 202.7 87.2 206.3C58 210 29 210 14.5 210L0 210Z" fill="#614dd5"></path><path d="M0 347L14.5 350.5C29 354 58 361 87.2 368.2C116.3 375.3 145.7 382.7 174.8 374.7C204 366.7 233 343.3 262 341.5C291 339.7 320 359.3 349 362C378 364.7 407 350.3 436.2 342.2C465.3 334 494.7 332 523.8 341.8C553 351.7 582 373.3 611 376.2C640 379 669 363 698 341.5C727 320 756 293 785.2 293C814.3 293 843.7 320 872.8 310C902 300 931 253 945.5 229.5L960 206L960 150L945.5 171.7C931 193.3 902 236.7 872.8 244.8C843.7 253 814.3 226 785.2 226C756 226 727 253 698 271C669 289 640 298 611 300.7C582 303.3 553 299.7 523.8 290.7C494.7 281.7 465.3 267.3 436.2 271.8C407 276.3 378 299.7 349 297.8C320 296 291 269 262 264.5C233 260 204 278 174.8 285.2C145.7 292.3 116.3 288.7 87.2 281.5C58 274.3 29 263.7 14.5 258.3L0 253Z" fill="#715df2"></path><path d="M0 476L14.5 472.5C29 469 58 462 87.2 457.5C116.3 453 145.7 451 174.8 450C204 449 233 449 262 455.3C291 461.7 320 474.3 349 475.3C378 476.3 407 465.7 436.2 459.3C465.3 453 494.7 451 523.8 459C553 467 582 485 611 488.7C640 492.3 669 481.7 698 473.7C727 465.7 756 460.3 785.2 459.3C814.3 458.3 843.7 461.7 872.8 465.2C902 468.7 931 472.3 945.5 474.2L960 476L960 204L945.5 227.5C931 251 902 298 872.8 308C843.7 318 814.3 291 785.2 291C756 291 727 318 698 339.5C669 361 640 377 611 374.2C582 371.3 553 349.7 523.8 339.8C494.7 330 465.3 332 436.2 340.2C407 348.3 378 362.7 349 360C320 357.3 291 337.7 262 339.5C233 341.3 204 364.7 174.8 372.7C145.7 380.7 116.3 373.3 87.2 366.2C58 359 29 352 14.5 348.5L0 345Z" fill="#8877f6"></path><path d="M0 541L14.5 541C29 541 58 541 87.2 541C116.3 541 145.7 541 174.8 541C204 541 233 541 262 541C291 541 320 541 349 541C378 541 407 541 436.2 541C465.3 541 494.7 541 523.8 541C553 541 582 541 611 541C640 541 669 541 698 541C727 541 756 541 785.2 541C814.3 541 843.7 541 872.8 541C902 541 931 541 945.5 541L960 541L960 474L945.5 472.2C931 470.3 902 466.7 872.8 463.2C843.7 459.7 814.3 456.3 785.2 457.3C756 458.3 727 463.7 698 471.7C669 479.7 640 490.3 611 486.7C582 483 553 465 523.8 457C494.7 449 465.3 451 436.2 457.3C407 463.7 378 474.3 349 473.3C320 472.3 291 459.7 262 453.3C233 447 204 447 174.8 448C145.7 449 116.3 451 87.2 455.5C58 460 29 467 14.5 470.5L0 474Z" fill="#9e90fa"></path></svg>