<svg id="visual" viewBox="0 0 960 540" width="960" height="540" xmlns="http://www.w3.org/2000/svg" xmlns:xlink="http://www.w3.org/1999/xlink" version="1.1"><rect x="0" y="0" width="960" height="540" fill="#002233"></rect><path d="M0 394L16 389C32 384 64 374 96 381C128 388 160 412 192 408.2C224 404.3 256 372.7 288 359.8C320 347 352 353 384 362.7C416 372.3 448 385.7 480 403.3C512 421 544 443 576 444.3C608 445.7 640 426.3 672 416C704 405.7 736 404.3 768 413C800 421.7 832 440.3 864 438.5C896 436.7 928 414.3 944 403.2L960 392L960 541L944 541C928 541 896 541 864 541C832 541 800 541 768 541C736 541 704 541 672 541C640 541 608 541 576 541C544 541 512 541 480 541C448 541 416 541 384 541C352 541 320 541 288 541C256 541 224 541 192 541C160 541 128 541 96 541C64 541 32 541 16 541L0 541Z" fill="#0066FF" stroke-linecap="round" stroke-linejoin="miter"></path></svg>